<svg xmlns="http://www.w3.org/2000/svg" width="469" height="469" viewBox="0 0 469 469">
  <g id="logo-footer" transform="translate(2.5 2.5)">
    <path id="Path_2" data-name="Path 2" d="M200,424c106.04,0,192-85.96,192-192S306.04,40,200,40,8,125.96,8,232,93.96,424,200,424Zm0-352A160,160,0,1,1,40,232,160,160,0,0,1,200,72Z" fill="#5f8aff" stroke="#5f8aff" stroke-width="5"/>
    <g id="Group_2" data-name="Group 2">
      <path id="Path_3" data-name="Path 3" d="M170.88,32C94.3,32,32,94.3,32,170.88S94.3,309.76,170.88,309.76s138.88-62.3,138.88-138.88S247.456,32,170.88,32Zm0,264.534A125.654,125.654,0,1,1,296.534,170.88,125.654,125.654,0,0,1,170.88,296.534Z" transform="translate(29.12 29.12)" fill="#fff" stroke="#fff" stroke-width="5"/>
      <path id="Path_4" data-name="Path 4" d="M101.213,148.132A5.2,5.2,0,0,0,104.9,146.6l41.7-41.7a5.213,5.213,0,1,0-7.372-7.372l-41.7,41.705a5.213,5.213,0,0,0,3.686,8.9Z" transform="translate(25.081 25.08)" fill="#fff" stroke="#fff" stroke-width="5"/>
      <path id="Path_5" data-name="Path 5" d="M180.94,97.527,97.527,180.94a5.213,5.213,0,1,0,7.372,7.372L188.311,104.9a5.213,5.213,0,1,0-7.372-7.372Z" transform="translate(25.081 25.08)" fill="#fff" stroke="#fff" stroke-width="5"/>
      <path id="Path_6" data-name="Path 6" d="M452.28,376.968,373.9,298.592A198.676,198.676,0,0,0,400,200C400,89.72,310.28,0,200,0S0,89.72,0,200,89.72,400,200,400a198.676,198.676,0,0,0,98.592-26.1l78.376,78.376A39.752,39.752,0,0,0,405.256,464H424a40.045,40.045,0,0,0,40-40V405.256a39.752,39.752,0,0,0-11.72-28.288ZM16,200C16,98.544,98.536,16,200,16S384,98.544,384,200,301.464,384,200,384,16,301.464,16,200ZM448,424a24.029,24.029,0,0,1-24,24H405.256a23.861,23.861,0,0,1-16.976-7.032l-75.736-75.736a201.71,201.71,0,0,0,52.688-52.688l75.736,75.736A23.888,23.888,0,0,1,448,405.256Z" fill="#fff" stroke="#fff" stroke-width="5"/>
    </g>
  </g>
</svg>
