<svg xmlns="http://www.w3.org/2000/svg" xmlns:xlink="http://www.w3.org/1999/xlink" width="223" height="168" viewBox="0 0 223 168">
  <defs>
    <clipPath id="clip-path">
      <rect width="223" height="168" fill="none"/>
    </clipPath>
  </defs>
  <g id="pattern" opacity="0.08" clip-path="url(#clip-path)">
    <g transform="translate(-153 -212)">
      <circle id="Ellipse_1" data-name="Ellipse 1" cx="4" cy="4" r="4" transform="translate(153 212)"/>
    </g>
    <g transform="translate(-125 -212)">
      <circle id="Ellipse_1-2" data-name="Ellipse 1" cx="4" cy="4" r="4" transform="translate(153 212)"/>
    </g>
    <g transform="translate(-97 -212)">
      <circle id="Ellipse_1-3" data-name="Ellipse 1" cx="4" cy="4" r="4" transform="translate(153 212)"/>
    </g>
    <g transform="translate(-69 -212)">
      <circle id="Ellipse_1-4" data-name="Ellipse 1" cx="4" cy="4" r="4" transform="translate(153 212)"/>
    </g>
    <g transform="translate(-41 -212)">
      <circle id="Ellipse_1-5" data-name="Ellipse 1" cx="4" cy="4" r="4" transform="translate(153 212)"/>
    </g>
    <g transform="translate(-13 -212)">
      <circle id="Ellipse_1-6" data-name="Ellipse 1" cx="4" cy="4" r="4" transform="translate(153 212)"/>
    </g>
    <g transform="translate(15 -212)">
      <circle id="Ellipse_1-7" data-name="Ellipse 1" cx="4" cy="4" r="4" transform="translate(153 212)"/>
    </g>
    <g transform="translate(43 -212)">
      <circle id="Ellipse_1-8" data-name="Ellipse 1" cx="4" cy="4" r="4" transform="translate(153 212)"/>
    </g>
    <g transform="translate(-153 -184)">
      <circle id="Ellipse_1-9" data-name="Ellipse 1" cx="4" cy="4" r="4" transform="translate(153 212)"/>
    </g>
    <g transform="translate(-125 -184)">
      <circle id="Ellipse_1-10" data-name="Ellipse 1" cx="4" cy="4" r="4" transform="translate(153 212)"/>
    </g>
    <g transform="translate(-97 -184)">
      <circle id="Ellipse_1-11" data-name="Ellipse 1" cx="4" cy="4" r="4" transform="translate(153 212)"/>
    </g>
    <g transform="translate(-69 -184)">
      <circle id="Ellipse_1-12" data-name="Ellipse 1" cx="4" cy="4" r="4" transform="translate(153 212)"/>
    </g>
    <g transform="translate(-41 -184)">
      <circle id="Ellipse_1-13" data-name="Ellipse 1" cx="4" cy="4" r="4" transform="translate(153 212)"/>
    </g>
    <g transform="translate(-13 -184)">
      <circle id="Ellipse_1-14" data-name="Ellipse 1" cx="4" cy="4" r="4" transform="translate(153 212)"/>
    </g>
    <g transform="translate(15 -184)">
      <circle id="Ellipse_1-15" data-name="Ellipse 1" cx="4" cy="4" r="4" transform="translate(153 212)"/>
    </g>
    <g transform="translate(43 -184)">
      <circle id="Ellipse_1-16" data-name="Ellipse 1" cx="4" cy="4" r="4" transform="translate(153 212)"/>
    </g>
    <g transform="translate(-153 -156)">
      <circle id="Ellipse_1-17" data-name="Ellipse 1" cx="4" cy="4" r="4" transform="translate(153 212)"/>
    </g>
    <g transform="translate(-125 -156)">
      <circle id="Ellipse_1-18" data-name="Ellipse 1" cx="4" cy="4" r="4" transform="translate(153 212)"/>
    </g>
    <g transform="translate(-97 -156)">
      <circle id="Ellipse_1-19" data-name="Ellipse 1" cx="4" cy="4" r="4" transform="translate(153 212)"/>
    </g>
    <g transform="translate(-69 -156)">
      <circle id="Ellipse_1-20" data-name="Ellipse 1" cx="4" cy="4" r="4" transform="translate(153 212)"/>
    </g>
    <g transform="translate(-41 -156)">
      <circle id="Ellipse_1-21" data-name="Ellipse 1" cx="4" cy="4" r="4" transform="translate(153 212)"/>
    </g>
    <g transform="translate(-13 -156)">
      <circle id="Ellipse_1-22" data-name="Ellipse 1" cx="4" cy="4" r="4" transform="translate(153 212)"/>
    </g>
    <g transform="translate(15 -156)">
      <circle id="Ellipse_1-23" data-name="Ellipse 1" cx="4" cy="4" r="4" transform="translate(153 212)"/>
    </g>
    <g transform="translate(43 -156)">
      <circle id="Ellipse_1-24" data-name="Ellipse 1" cx="4" cy="4" r="4" transform="translate(153 212)"/>
    </g>
    <g transform="translate(-153 -128)">
      <circle id="Ellipse_1-25" data-name="Ellipse 1" cx="4" cy="4" r="4" transform="translate(153 212)"/>
    </g>
    <g transform="translate(-125 -128)">
      <circle id="Ellipse_1-26" data-name="Ellipse 1" cx="4" cy="4" r="4" transform="translate(153 212)"/>
    </g>
    <g transform="translate(-97 -128)">
      <circle id="Ellipse_1-27" data-name="Ellipse 1" cx="4" cy="4" r="4" transform="translate(153 212)"/>
    </g>
    <g transform="translate(-69 -128)">
      <circle id="Ellipse_1-28" data-name="Ellipse 1" cx="4" cy="4" r="4" transform="translate(153 212)"/>
    </g>
    <g transform="translate(-41 -128)">
      <circle id="Ellipse_1-29" data-name="Ellipse 1" cx="4" cy="4" r="4" transform="translate(153 212)"/>
    </g>
    <g transform="translate(-13 -128)">
      <circle id="Ellipse_1-30" data-name="Ellipse 1" cx="4" cy="4" r="4" transform="translate(153 212)"/>
    </g>
    <g transform="translate(15 -128)">
      <circle id="Ellipse_1-31" data-name="Ellipse 1" cx="4" cy="4" r="4" transform="translate(153 212)"/>
    </g>
    <g transform="translate(43 -128)">
      <circle id="Ellipse_1-32" data-name="Ellipse 1" cx="4" cy="4" r="4" transform="translate(153 212)"/>
    </g>
    <g transform="translate(-153 -100)">
      <circle id="Ellipse_1-33" data-name="Ellipse 1" cx="4" cy="4" r="4" transform="translate(153 212)"/>
    </g>
    <g transform="translate(-125 -100)">
      <circle id="Ellipse_1-34" data-name="Ellipse 1" cx="4" cy="4" r="4" transform="translate(153 212)"/>
    </g>
    <g transform="translate(-97 -100)">
      <circle id="Ellipse_1-35" data-name="Ellipse 1" cx="4" cy="4" r="4" transform="translate(153 212)"/>
    </g>
    <g transform="translate(-69 -100)">
      <circle id="Ellipse_1-36" data-name="Ellipse 1" cx="4" cy="4" r="4" transform="translate(153 212)"/>
    </g>
    <g transform="translate(-41 -100)">
      <circle id="Ellipse_1-37" data-name="Ellipse 1" cx="4" cy="4" r="4" transform="translate(153 212)"/>
    </g>
    <g transform="translate(-13 -100)">
      <circle id="Ellipse_1-38" data-name="Ellipse 1" cx="4" cy="4" r="4" transform="translate(153 212)"/>
    </g>
    <g transform="translate(15 -100)">
      <circle id="Ellipse_1-39" data-name="Ellipse 1" cx="4" cy="4" r="4" transform="translate(153 212)"/>
    </g>
    <g transform="translate(43 -100)">
      <circle id="Ellipse_1-40" data-name="Ellipse 1" cx="4" cy="4" r="4" transform="translate(153 212)"/>
    </g>
    <g transform="translate(-153 -72)">
      <circle id="Ellipse_1-41" data-name="Ellipse 1" cx="4" cy="4" r="4" transform="translate(153 212)"/>
    </g>
    <g transform="translate(-125 -72)">
      <circle id="Ellipse_1-42" data-name="Ellipse 1" cx="4" cy="4" r="4" transform="translate(153 212)"/>
    </g>
    <g transform="translate(-97 -72)">
      <circle id="Ellipse_1-43" data-name="Ellipse 1" cx="4" cy="4" r="4" transform="translate(153 212)"/>
    </g>
    <g transform="translate(-69 -72)">
      <circle id="Ellipse_1-44" data-name="Ellipse 1" cx="4" cy="4" r="4" transform="translate(153 212)"/>
    </g>
    <g transform="translate(-41 -72)">
      <circle id="Ellipse_1-45" data-name="Ellipse 1" cx="4" cy="4" r="4" transform="translate(153 212)"/>
    </g>
    <g transform="translate(-13 -72)">
      <circle id="Ellipse_1-46" data-name="Ellipse 1" cx="4" cy="4" r="4" transform="translate(153 212)"/>
    </g>
    <g transform="translate(15 -72)">
      <circle id="Ellipse_1-47" data-name="Ellipse 1" cx="4" cy="4" r="4" transform="translate(153 212)"/>
    </g>
    <g transform="translate(43 -72)">
      <circle id="Ellipse_1-48" data-name="Ellipse 1" cx="4" cy="4" r="4" transform="translate(153 212)"/>
    </g>
  </g>
</svg>
